<?xml version="1.0" encoding="utf-8"?>
<!-- Generator: Adobe Illustrator 27.8.0, SVG Export Plug-In . SVG Version: 6.00 Build 0)  -->
<svg version="1.1" id="Layer_1" xmlns="http://www.w3.org/2000/svg" xmlns:xlink="http://www.w3.org/1999/xlink" x="0px" y="0px"
	 viewBox="0 0 800 800" style="enable-background:new 0 0 800 800;" xml:space="preserve">
<style type="text/css">
	.st0{fill:none;stroke:#000000;stroke-width:35.5556;stroke-miterlimit:71.1111;}
</style>
<g>
	<path class="st0" d="M650.1,250h50.1c13.8,0,25,11.2,25,25v250c0,13.8-11.2,25-25,25h-50.1c-13.8,0-25-11.2-25-25V275
		C625.1,261.2,636.3,250,650.1,250z"/>
	<path class="st0" d="M550.1,150h50.1c13.8,0,25,11.2,25,25v450c0,13.8-11.2,25-25,25h-50.1c-13.8,0-25-11.2-25-25V175
		C525.1,161.2,536.2,150,550.1,150z"/>
	<path class="st0" d="M200.1,150h50.1c13.8,0,25,11.2,25,25v450c0,13.8-11.2,25-25,25h-50.1c-13.8,0-25-11.2-25-25V175
		C175.1,161.2,186.3,150,200.1,150z"/>
	<path class="st0" d="M100.1,250h50.1c13.8,0,25,11.2,25,25v250c0,13.8-11.2,25-25,25h-50.1c-13.8,0-25-11.2-25-25V275
		C75.1,261.2,86.2,250,100.1,250z"/>
	<path class="st0" d="M725,400h75"/>
	<path class="st0" d="M275.1,400h250"/>
	<path class="st0" d="M0,400h75"/>
</g>
</svg>
