<?xml version="1.0" encoding="utf-8"?>
<!-- Generator: Adobe Illustrator 27.8.0, SVG Export Plug-In . SVG Version: 6.00 Build 0)  -->
<svg version="1.1" id="Capa_1" xmlns="http://www.w3.org/2000/svg" xmlns:xlink="http://www.w3.org/1999/xlink" x="0px" y="0px"
	 viewBox="0 0 800 800" style="enable-background:new 0 0 800 800;" xml:space="preserve">
<g>
	<g>
		<g>
			<g>
				<path d="M497.6,278.8H180.3c-8.8,0-15.9-6.1-15.9-13.5c0-7.5,7.2-13.5,15.9-13.5h317.3c8.8,0,15.9,6.1,15.9,13.5
					S506.4,278.8,497.6,278.8z"/>
			</g>
			<g>
				<path d="M421.8,339.5H180.3c-8.8,0-15.9-6.1-15.9-13.5c0-7.5,7.2-13.5,15.9-13.5h241.5c8.8,0,15.9,6.1,15.9,13.5
					C437.8,333.5,430.6,339.5,421.8,339.5z"/>
			</g>
			<g>
				<path d="M260.3,521.6h-80c-8.8,0-15.9-6.1-15.9-13.5c0-7.5,7.2-13.5,15.9-13.5h80c8.8,0,15.9,6.1,15.9,13.5
					C276.1,515.6,269.1,521.6,260.3,521.6z"/>
			</g>
			<g>
				<path d="M225.6,582.3h-45.3c-8.8,0-15.9-6.1-15.9-13.5s7.2-13.5,15.9-13.5h45.3c8.8,0,15.9,6.1,15.9,13.5
					C241.5,576.3,234.3,582.3,225.6,582.3z"/>
			</g>
			<path d="M781.1,150.9l-36.2-23c-9.1-5.8-20.4-8.2-31.7-6.8c-11.3,1.4-21.2,6.5-28,14.2l0,0l-89.9,103.8V136
				c0-7.5-7.2-13.5-15.9-13.5h-65.8v-20.8c0-7.5-7.2-13.5-15.9-13.5s-15.9,6.1-15.9,13.5v20.8h-47.5v-20.8c0-7.5-7.2-13.5-15.9-13.5
				s-15.9,6.1-15.9,13.5v20.8h-47.5v-20.8c0-7.5-7.2-13.5-15.9-13.5S323,94.3,323,101.7v20.8h-47.5v-20.8c0-7.5-7.2-13.5-15.9-13.5
				s-15.9,6.1-15.9,13.5v20.8h-47.4v-20.8c0-7.5-7.2-13.5-15.9-13.5c-8.8,0-15.9,6.1-15.9,13.5v20.8H98.6c-8.8-0.1-15.9,6-15.9,13.5
				v562.2c0,7.5,7.2,13.5,15.9,13.5h480.9c8.8,0,15.9-6.1,15.9-13.5V427.8L790,201.7l0,0C803.9,185.6,800,162.8,781.1,150.9z
				 M563.5,684.7H114.5V149.5h50v20.8c0,7.5,7.2,13.5,15.9,13.5c8.8,0,15.9-6.1,15.9-13.5v-20.8h47.5v20.8c0,7.5,7.2,13.5,15.9,13.5
				c8.8,0,15.9-6.1,15.9-13.5v-20.8h47.5v20.8c0,7.5,7.2,13.5,15.9,13.5c8.8,0,15.9-6.1,15.9-13.5v-20.8h47.5v20.8
				c0,7.5,7.2,13.5,15.9,13.5c8.8,0,15.9-6.1,15.9-13.5v-20.8h47.5v20.8c0,7.5,7.2,13.5,15.9,13.5s15.9-6.1,15.9-13.5v-20.8h50
				v126.7l-82.9,96.9H180.3c-8.8,0-15.9,6.1-15.9,13.5s7.2,13.5,15.9,13.5h277.1c0,0-90.3,105.7-90.4,105.7l0,0
				c-1,1.2-1.9,2.6-2.3,4.1l-36.3,105.9h-148c-8.8,0-15.9,6.1-15.9,13.5s7.2,13.5,15.9,13.5c0,0,160,0,160.1,0l0,0
				c3,0,5.8-0.7,8.4-2.2l118.8-65.4c1.6-0.9,3-2,4.1-3.3l91.7-107.2L563.5,684.7L563.5,684.7z M388.7,536.3l42.4,27l-63.8,35.1
				L388.7,536.3z M455.7,545L402,510.9l250.7-293l53.7,34.1L455.7,545z M725.3,230.1L671.6,196l17.1-19.6l53.7,34.1L725.3,230.1z
				 M764.4,185.5L764.4,185.5l-3,3.4l-53.7-34.1l3-3.3l0,0c1.7-2,4.3-3.3,7.2-3.6c2.9-0.4,5.7,0.3,8.1,1.7l36.2,23
				C767,175.6,767.9,181.4,764.4,185.5z"/>
		</g>
	</g>
</g>
</svg>
